<?xml version="1.0" encoding="UTF-8" standalone="no"?>
<!DOCTYPE svg PUBLIC "-//W3C//DTD SVG 1.0//EN" "http://www.w3.org/TR/2001/REC-SVG-20010904/DTD/svg10.dtd">
<!-- Created with Inkscape (http://www.inkscape.org/) by Steadfast-->
<svg
   xmlns:svg="http://www.w3.org/2000/svg"
   xmlns="http://www.w3.org/2000/svg"
   version="1.0"
   width="500"
   height="647"
   id="svg3334">
  <defs
     id="defs3336" />
  <g
     id="layer1">
    <g
       transform="translate(-387.2225,338.21095)"
       id="g3406">
      <path
         d="M 630.27992,297.52741 C 489.86034,254.07516 404.75919,113.06879 397.31416,27.983981 C 397.24128,26.812484 397.2225,26.476644 397.2225,-304.57159 L 397.2225,-311.70914 L 397.2225,-318.84668 L 397.2225,-326.07814 L 397.2225,-328.48951 L 399.63142,-328.48951 L 406.86288,-328.48951 L 414.00043,-328.48951 L 421.13798,-328.48951 L 636.71536,-328.48951 L 637.72964,-328.48951 L 853.30702,-328.48951 L 860.44457,-328.48951 L 867.58212,-328.48951 L 874.81358,-328.48951 L 877.2225,-328.48951 L 877.2225,-326.07814 L 877.2225,-318.84668 L 877.2225,-311.70914 L 877.2225,-304.57159 L 877.2225,25.896812 C 869.78217,111.99572 784.74901,254.10333 644.41884,297.52741 L 637.6006,299.06762"
         id="path391"
         style="fill:#ffffff;fill-opacity:1;fill-rule:nonzero;stroke:none" />
      <path
         d="M 862.85593,-316.52942 L 860.44457,-316.52942 L 853.30702,-316.52942 L 637.72964,-316.52942 L 636.71536,-316.52942 L 421.13798,-316.52942 L 414.00043,-316.52942 L 411.58925,-316.52942 L 409.18033,-316.52942 L 409.18033,-314.1205 L 409.18033,-311.70914 L 409.18033,-304.57159 C 409.18033,-85.214125 409.19198,26.291255 409.22485,26.939269 C 416.37648,108.66887 498.40436,244.20243 633.81338,286.1002 L 635.92422,286.75535 L 636.63553,286.97605 L 637.34929,287.19675 L 638.06079,286.97605 L 638.77454,286.75535 L 640.88519,286.1002 C 776.15822,244.24469 858.10853,108.21338 865.26486,25.896812 L 865.26486,-304.57159 L 865.26486,-311.70914 L 865.26486,-314.1205 L 865.26486,-316.52942"
         id="path393"
         style="fill:#8f9396;fill-opacity:1;fill-rule:nonzero;stroke:none" />
      <path
         d="M 638.13122,-269.81831 L 713.79391,-269.81831 L 713.79391,-198.25746 L 651.80526,-198.25746 C 651.80526,-198.25746 647.11645,-208.42133 638.0467,-208.3368 C 629.14355,-208.25228 624.45474,-198.25746 624.45474,-198.25746 L 562.46609,-198.25746 L 562.46609,-269.81831 L 638.13122,-269.81831"
         id="path395"
         style="fill:#740131;fill-opacity:1;fill-rule:nonzero;stroke:none" />
      <path
         d="M 638.13122,-269.81831 L 713.79391,-269.81831 L 713.79391,-198.25746 L 651.80526,-198.25746 C 651.80526,-198.25746 647.11645,-208.42133 638.0467,-208.3368 C 629.14355,-208.25228 624.45474,-198.25746 624.45474,-198.25746 L 562.46609,-198.25746 L 562.46609,-269.81831 L 638.13122,-269.81831"
         id="path397"
         style="fill:none;stroke:#740131;stroke-width:2.32439828;stroke-linecap:butt;stroke-linejoin:miter;stroke-miterlimit:4;stroke-dasharray:none;stroke-opacity:1" />
      <path
         d="M 636.71536,-181.05691 L 853.30702,-181.05691 L 853.30702,25.896812 C 847.08045,97.056272 773.00023,232.70478 637.34929,274.67787 C 501.69834,232.70478 427.36455,97.056272 421.13798,25.896812 L 421.13798,-181.05691 L 637.72964,-181.05691"
         id="path399"
         style="fill:#fbb93d;fill-opacity:1;fill-rule:nonzero;stroke:none" />
      <path
         d="M 636.71536,-181.05691 L 853.30702,-181.05691 L 853.30702,25.896812 C 847.08045,97.056272 773.00023,232.70478 637.34929,274.67787 C 501.69834,232.70478 427.36455,97.056272 421.13798,25.896812 L 421.13798,-181.05691 L 637.72964,-181.05691 L 636.71536,-181.05691 z"
         id="path401"
         style="fill:none;stroke:#fbb93d;stroke-width:2.32439828;stroke-linecap:butt;stroke-linejoin:miter;stroke-miterlimit:4;stroke-dasharray:none;stroke-opacity:1" />
      <path
         d="M 492.68249,-200.34463 L 497.96521,-200.34463 C 496.3664,-201.4857 493.39624,-202.88503 493.19677,-208.10915 C 492.90093,-215.88288 494.72045,-221.96632 494.72045,-221.96632 L 513.52469,-220.37446 L 509.79382,-226.35685 L 529.34224,-244.84873 L 523.99378,-246.52042 L 527.37716,-259.74836 L 515.19638,-257.13283 L 513.03633,-263.22792 L 504.48761,-253.54752 L 506.75097,-276.38542 L 499.77552,-270.62373 L 491.56959,-286.62442 L 483.36611,-270.62373 L 476.38822,-276.38542 L 478.65157,-253.54752 L 470.10305,-263.22792 L 467.94525,-257.13283 L 455.76221,-259.74836 L 459.14541,-246.52042 L 453.79695,-244.84873 L 473.34537,-226.35685 L 469.61469,-220.37446 L 488.41874,-221.96632 C 488.41874,-221.96632 490.44975,-215.87123 489.94261,-208.10915 C 489.59982,-202.85686 486.77298,-201.4857 485.17398,-200.34463"
         id="path403"
         style="fill:#fbb93d;fill-opacity:1;fill-rule:nonzero;stroke:none" />
      <path
         d="M 492.68249,-200.34463 L 497.96521,-200.34463 C 496.3664,-201.4857 493.39624,-202.88503 493.19677,-208.10915 C 492.90093,-215.88288 494.72045,-221.96632 494.72045,-221.96632 L 513.52469,-220.37446 L 509.79382,-226.35685 L 529.34224,-244.84873 L 523.99378,-246.52042 L 527.37716,-259.74836 L 515.19638,-257.13283 L 513.03633,-263.22792 L 504.48761,-253.54752 L 506.75097,-276.38542 L 499.77552,-270.62373 L 491.56959,-286.62442 L 483.36611,-270.62373 L 476.38822,-276.38542 L 478.65157,-253.54752 L 470.10305,-263.22792 L 467.94525,-257.13283 L 455.76221,-259.74836 L 459.14541,-246.52042 L 453.79695,-244.84873 L 473.34537,-226.35685 L 469.61469,-220.37446 L 488.41874,-221.96632 C 488.41874,-221.96632 490.44975,-215.87123 489.94261,-208.10915 C 489.59982,-202.85686 486.77298,-201.4857 485.17398,-200.34463 L 492.68249,-200.34463 z"
         id="path405"
         style="fill:none;stroke:#fbb93d;stroke-width:2.32439828;stroke-linecap:butt;stroke-linejoin:miter;stroke-miterlimit:4;stroke-dasharray:none;stroke-opacity:1" />
      <path
         d="M 780.64962,-200.34463 L 775.36689,-200.34463 C 776.96589,-201.4857 779.93586,-202.88503 780.13553,-208.10915 C 780.43361,-215.88288 778.61166,-221.96632 778.61166,-221.96632 L 759.80761,-220.37446 L 763.54073,-226.35685 L 743.98986,-244.84873 L 749.33833,-246.52042 L 745.95513,-259.74836 L 758.13817,-257.13283 L 760.29822,-263.22792 L 768.84449,-253.54752 L 766.58114,-276.38542 L 773.55903,-270.62373 L 781.76251,-286.62442 L 789.96599,-270.62373 L 796.94389,-276.38542 L 794.68297,-253.54752 L 803.22925,-263.22792 L 805.38929,-257.13283 L 817.57008,-259.74836 L 814.18669,-246.52042 L 819.53516,-244.84873 L 799.98673,-226.35685 L 803.7176,-220.37446 L 784.91336,-221.96632 C 784.91336,-221.96632 782.8848,-215.87123 783.38968,-208.10915 C 783.73247,-202.85686 786.55932,-201.4857 788.15813,-200.34463"
         id="path407"
         style="fill:#fbb93d;fill-opacity:1;fill-rule:nonzero;stroke:none" />
      <path
         d="M 780.64962,-200.34463 L 775.36689,-200.34463 C 776.96589,-201.4857 779.93586,-202.88503 780.13553,-208.10915 C 780.43361,-215.88288 778.61166,-221.96632 778.61166,-221.96632 L 759.80761,-220.37446 L 763.54073,-226.35685 L 743.98986,-244.84873 L 749.33833,-246.52042 L 745.95513,-259.74836 L 758.13817,-257.13283 L 760.29822,-263.22792 L 768.84449,-253.54752 L 766.58114,-276.38542 L 773.55903,-270.62373 L 781.76251,-286.62442 L 789.96599,-270.62373 L 796.94389,-276.38542 L 794.68297,-253.54752 L 803.22925,-263.22792 L 805.38929,-257.13283 L 817.57008,-259.74836 L 814.18669,-246.52042 L 819.53516,-244.84873 L 799.98673,-226.35685 L 803.7176,-220.37446 L 784.91336,-221.96632 C 784.91336,-221.96632 782.8848,-215.87123 783.38968,-208.10915 C 783.73247,-202.85686 786.55932,-201.4857 788.15813,-200.34463 L 780.64962,-200.34463 z"
         id="path409"
         style="fill:none;stroke:#fbb93d;stroke-width:2.32439828;stroke-linecap:butt;stroke-linejoin:miter;stroke-miterlimit:4;stroke-dasharray:none;stroke-opacity:1" />
      <path
         d="M 638.13122,-215.62236 C 646.72671,-224.67333 670.3394,-210.45703 678.27748,-209.51318 C 682.15861,-209.05056 701.12477,-209.25961 701.12477,-209.25961 L 701.12477,-280.7149 L 691.89517,-280.74777 C 691.89517,-280.74777 678.4114,-280.13263 671.47333,-282.95703 C 664.5377,-285.78162 646.52948,-292.16071 638.13122,-279.63244 C 629.73052,-292.16071 611.72455,-285.78162 604.78667,-282.95703 C 597.8486,-280.13263 584.36484,-280.74777 584.36484,-280.74777 L 575.13524,-280.7149 L 575.13524,-209.25961 C 575.13524,-209.25961 594.10139,-209.05056 597.98252,-209.51318 C 605.9206,-210.45703 629.5333,-224.67333 638.13122,-215.62236"
         id="path411"
         style="fill:#fbb93d;fill-opacity:1;fill-rule:nonzero;stroke:none" />
      <path
         d="M 638.13122,-215.62236 C 646.72671,-224.67333 670.3394,-210.45703 678.27748,-209.51318 C 682.15861,-209.05056 701.12477,-209.25961 701.12477,-209.25961 L 701.12477,-280.7149 L 691.89517,-280.74777 C 691.89517,-280.74777 678.4114,-280.13263 671.47333,-282.95703 C 664.5377,-285.78162 646.52948,-292.16071 638.13122,-279.63244 C 629.73052,-292.16071 611.72455,-285.78162 604.78667,-282.95703 C 597.8486,-280.13263 584.36484,-280.74777 584.36484,-280.74777 L 575.13524,-280.7149 L 575.13524,-209.25961 C 575.13524,-209.25961 594.10139,-209.05056 597.98252,-209.51318 C 605.9206,-210.45703 629.5333,-224.67333 638.13122,-215.62236 z"
         id="path413"
         style="fill:none;stroke:#fbb93d;stroke-width:2.32439828;stroke-linecap:butt;stroke-linejoin:miter;stroke-miterlimit:4;stroke-dasharray:none;stroke-opacity:1" />
      <path
         d="M 635.70352,-217.41369 C 636.60266,-216.96065 637.41747,-216.37124 638.13122,-215.62236 C 638.66654,-216.1881 639.64326,-216.86429 640.44379,-217.33161 L 640.48135,-282.54625 C 639.57977,-281.7198 638.77454,-280.59281 638.13122,-279.63244 C 637.42442,-280.68429 636.52997,-281.74553 635.70108,-282.54625"
         id="path415"
         style="fill:#740131;fill-opacity:1;fill-rule:nonzero;stroke:none" />
      <path
         d="M 635.70352,-217.41369 C 636.60266,-216.96065 637.41747,-216.37124 638.13122,-215.62236 C 638.66654,-216.1881 639.64326,-216.86429 640.44379,-217.33161 L 640.48135,-282.54625 C 639.57977,-281.7198 638.77454,-280.59281 638.13122,-279.63244 C 637.42442,-280.68429 636.52997,-281.74553 635.70108,-282.54625 L 635.70352,-217.41369 z"
         id="path417"
         style="fill:none;stroke:#740131;stroke-width:2.32439828;stroke-linecap:butt;stroke-linejoin:miter;stroke-miterlimit:4;stroke-dasharray:none;stroke-opacity:1" />
      <path
         d="M 607.79665,-92.365759 C 607.79665,-92.365759 629.73991,-90.919467 631.47264,-109.74475 C 631.47264,-109.74475 633.20293,-95.608271 637.52303,-95.54948 C 642.43479,-95.608271 642.42784,-110.30598 642.42784,-110.30598 C 649.99495,-90.177538 668.97763,-88.900292 668.97763,-88.900292 C 653.01207,-99.862625 653.93244,-129.29787 654.07087,-131.50731 C 654.99123,-146.25893 667.73795,-144.8996 668.70528,-153.59614 C 670.05052,-165.72058 655.45142,-163.12138 655.45142,-163.12138 C 655.45142,-163.12138 661.63573,-163.06278 662.7674,-160.08567 C 665.39008,-153.18291 653.51677,-152.35402 653.51677,-152.35402 C 639.02342,-148.59516 634.05287,-157.18595 628.80771,-158.15328 C 623.5603,-159.11835 622.59523,-155.66697 621.48947,-154.42485 C 620.38597,-153.18291 598.05052,-151.87505 593.39008,-146.96329 C 588.051,-141.33553 588.62858,-134.70043 592.29127,-130.51181 C 592.29127,-130.51181 594.33618,-138.38659 602.79793,-138.68937 C 610.98732,-138.98051 625.29303,-127.99958 628.45797,-121.58049 C 624.87511,-121.42083 592.90867,-119.38982 588.77415,-122.43737 C 586.15148,-124.36977 583.16742,-128.33298 583.30585,-130.95547 C 583.30585,-130.95547 581.58965,-122.75443 585.45651,-120.1295 C 589.32111,-117.50683 590.46462,-117.96006 592.8125,-117.82144 C 595.0242,-117.6924 625.88225,-118.61503 629.19746,-118.6432 C 628.44144,-116.32819 629.15989,-110.33416 622.38392,-109.77067 L 596.95885,-109.76822 C 596.95885,-109.76822 596.20978,-103.37505 606.14374,-106.16188 C 608.20988,-106.7419 614.88724,-108.53324 616.90172,-104.94099 C 618.23757,-102.55799 622.7808,-94.586851 607.79665,-92.365759"
         id="path419"
         style="fill:#740131;fill-opacity:1;fill-rule:nonzero;stroke:none" />
      <path
         d="M 607.79665,-92.365759 C 607.79665,-92.365759 629.73991,-90.919467 631.47264,-109.74475 C 631.47264,-109.74475 633.20293,-95.608271 637.52303,-95.54948 C 642.43479,-95.608271 642.42784,-110.30598 642.42784,-110.30598 C 649.99495,-90.177538 668.97763,-88.900292 668.97763,-88.900292 C 653.01207,-99.862625 653.93244,-129.29787 654.07087,-131.50731 C 654.99123,-146.25893 667.73795,-144.8996 668.70528,-153.59614 C 670.05052,-165.72058 655.45142,-163.12138 655.45142,-163.12138 C 655.45142,-163.12138 661.63573,-163.06278 662.7674,-160.08567 C 665.39008,-153.18291 653.51677,-152.35402 653.51677,-152.35402 C 639.02342,-148.59516 634.05287,-157.18595 628.80771,-158.15328 C 623.5603,-159.11835 622.59523,-155.66697 621.48947,-154.42485 C 620.38597,-153.18291 598.05052,-151.87505 593.39008,-146.96329 C 588.051,-141.33553 588.62858,-134.70043 592.29127,-130.51181 C 592.29127,-130.51181 594.33618,-138.38659 602.79793,-138.68937 C 610.98732,-138.98051 625.29303,-127.99958 628.45797,-121.58049 C 624.87511,-121.42083 592.90867,-119.38982 588.77415,-122.43737 C 586.15148,-124.36977 583.16742,-128.33298 583.30585,-130.95547 C 583.30585,-130.95547 581.58965,-122.75443 585.45651,-120.1295 C 589.32111,-117.50683 590.46462,-117.96006 592.8125,-117.82144 C 595.0242,-117.6924 625.88225,-118.61503 629.19746,-118.6432 C 628.44144,-116.32819 629.15989,-110.33416 622.38392,-109.77067 L 596.95885,-109.76822 C 596.95885,-109.76822 596.20978,-103.37505 606.14374,-106.16188 C 608.20988,-106.7419 614.88724,-108.53324 616.90172,-104.94099 C 618.23757,-102.55799 622.7808,-94.586851 607.79665,-92.365759 z"
         id="path421"
         style="fill:none;stroke:#740131;stroke-width:2.32439828;stroke-linecap:butt;stroke-linejoin:miter;stroke-miterlimit:4;stroke-dasharray:none;stroke-opacity:1" />
      <path
         d="M 624.281,129.6001 C 615.19246,135.5145 599.85369,130.56273 599.85369,130.56273 C 599.85369,130.56273 600.24118,134.7983 586.47079,140.59061 C 565.8213,149.27776 544.12692,171.15058 572.47049,202.99474 C 572.47049,202.99474 560.70988,166.74352 578.93185,158.27482 C 578.93185,158.27482 594.73532,173.71202 617.55668,143.06997 C 622.18914,136.85035 624.281,129.6001 624.281,129.6001"
         id="path423"
         style="fill:#740131;fill-opacity:1;fill-rule:nonzero;stroke:none" />
      <path
         d="M 624.281,129.6001 C 615.19246,135.5145 599.85369,130.56273 599.85369,130.56273 C 599.85369,130.56273 600.24118,134.7983 586.47079,140.59061 C 565.8213,149.27776 544.12692,171.15058 572.47049,202.99474 C 572.47049,202.99474 560.70988,166.74352 578.93185,158.27482 C 578.93185,158.27482 594.73532,173.71202 617.55668,143.06997 C 622.18914,136.85035 624.281,129.6001 624.281,129.6001 z"
         id="path425"
         style="fill:none;stroke:#740131;stroke-width:2.32439828;stroke-linecap:butt;stroke-linejoin:miter;stroke-miterlimit:4;stroke-dasharray:none;stroke-opacity:1" />
      <path
         d="M 573.00111,1.762889 C 572.29675,11.210747 570.92784,11.595798 562.27826,15.829115 C 562.27826,15.829115 558.94202,12.642952 557.24216,9.3771485 C 551.90778,-0.87368307 560.82032,-15.987062 560.82032,-15.987062 C 551.12359,-4.0057512 537.04797,-8.0347083 537.04797,-8.0347083 C 538.08818,-18.264503 551.76691,-27.545567 551.76691,-27.545567 C 539.16106,-25.214219 529.22729,-32.156798 529.22729,-32.156798 C 532.74911,-38.770862 546.024,-47.185653 546.024,-47.185653 C 533.19276,-48.019056 524.20753,-56.034708 524.20753,-56.034708 C 528.05805,-61.484225 542.45053,-68.64525 542.45053,-68.64525 C 535.56881,-72.756289 528.80467,-84.718817 528.80467,-84.718817 C 538.57409,-89.982758 549.8933,-88.808819 549.8933,-88.808819 C 531.73013,-102.08127 551.34899,-138.28554 551.34899,-138.28554 C 548.57605,-83.634098 590.69697,-97.866929 587.40994,-70.046839 C 584.70518,-47.155037 559.82708,-63.956446 559.82708,-63.956446 C 555.50003,-32.088803 573.7359,-29.076383 573.7359,-29.076383 C 573.7359,-29.076383 572.8531,-21.389433 572.56666,-13.312736 C 572.21448,-3.4610437 573.33921,-2.7826011 573.00111,1.762889"
         id="path427"
         style="fill:#740131;fill-opacity:1;fill-rule:nonzero;stroke:none" />
      <path
         d="M 573.00111,1.762889 C 572.29675,11.210747 570.92784,11.595798 562.27826,15.829115 C 562.27826,15.829115 558.94202,12.642952 557.24216,9.3771485 C 551.90778,-0.87368307 560.82032,-15.987062 560.82032,-15.987062 C 551.12359,-4.0057512 537.04797,-8.0347083 537.04797,-8.0347083 C 538.08818,-18.264503 551.76691,-27.545567 551.76691,-27.545567 C 539.16106,-25.214219 529.22729,-32.156798 529.22729,-32.156798 C 532.74911,-38.770862 546.024,-47.185653 546.024,-47.185653 C 533.19276,-48.019056 524.20753,-56.034708 524.20753,-56.034708 C 528.05805,-61.484225 542.45053,-68.64525 542.45053,-68.64525 C 535.56881,-72.756289 528.80467,-84.718817 528.80467,-84.718817 C 538.57409,-89.982758 549.8933,-88.808819 549.8933,-88.808819 C 531.73013,-102.08127 551.34899,-138.28554 551.34899,-138.28554 C 548.57605,-83.634098 590.69697,-97.866929 587.40994,-70.046839 C 584.70518,-47.155037 559.82708,-63.956446 559.82708,-63.956446 C 555.50003,-32.088803 573.7359,-29.076383 573.7359,-29.076383 C 573.7359,-29.076383 572.8531,-21.389433 572.56666,-13.312736 C 572.21448,-3.4610437 573.33921,-2.7826011 573.00111,1.762889 z"
         id="path429"
         style="fill:none;stroke:#740131;stroke-width:2.32439828;stroke-linecap:butt;stroke-linejoin:miter;stroke-miterlimit:4;stroke-dasharray:none;stroke-opacity:1" />
      <path
         d="M 517.53712,81.229138 C 575.50151,79.801629 585.88851,35.847115 585.88851,35.847115 C 580.36631,27.702236 579.38734,23.457274 579.38734,23.457274 C 579.38734,23.457274 578.49514,21.043656 578.47636,21.062439 C 574.58828,25.248798 560.00552,30.695873 560.00552,30.695873 C 560.00552,30.695873 551.60725,23.382142 549.49886,20.365213 C 543.85212,12.274429 542.97176,6.3436912 542.97176,6.3436912 C 533.13885,6.5901244 524.13935,-1.9749314 524.13935,-1.9749314 C 523.58769,-10.993033 527.29733,-18.527465 527.29733,-18.527465 C 520.29822,-21.732223 513.08084,-28.907336 513.08084,-28.907336 C 517.77435,-38.848248 520.84762,-42.071977 520.84762,-42.071977 C 509.67417,-50.72381 509.27033,-56.025317 509.27033,-56.025317 C 512.03839,-63.526878 522.23062,-70.908604 522.23062,-70.908604 C 517.85173,-76.764209 513.72191,-88.217154 513.72191,-88.217154 C 521.77269,-96.298547 529.54191,-98.714419 529.54191,-98.714419 C 528.30918,-103.28583 528.57928,-107.65288 528.90798,-112.46603 C 528.90798,-112.46603 462.4114,-147.10886 455.04846,-169.56396 C 455.04846,-169.56396 451.96091,-149.66579 453.20528,-136.80168 C 454.31123,-125.38874 472.02587,-106.71373 514.85584,-78.069629 C 488.56431,-82.096144 452.58319,-96.199936 444.73884,-110.29415 C 444.73884,-110.29415 444.60736,-89.877009 449.15059,-77.776051 C 452.83901,-67.957228 471.44829,-60.939518 513.37668,-40.360281 C 492.68718,-28.973077 455.99231,-41.59996 445.47851,-52.193581 C 445.47851,-52.193581 451.29655,-34.37789 458.17583,-23.434528 C 462.5194,-16.527074 479.90065,-4.9379523 520.30066,-10.931989 C 505.29998,7.7264969 476.53623,21.790281 457.02537,12.955313 C 457.02537,12.955313 459.03046,30.679344 470.87785,35.856507 C 479.64012,39.683546 498.11792,42.113505 527.56969,19.289886 C 509.8079,63.281966 466.45914,49.845159 466.45914,49.845159 C 466.45914,49.845159 476.70058,67.367272 488.11352,73.438882 C 498.23531,78.822658 519.10324,74.509514 552.97128,37.697242 C 552.97128,37.697242 550.85349,70.276385 517.53712,81.229138"
         id="path431"
         style="fill:#740131;fill-opacity:1;fill-rule:nonzero;stroke:none" />
      <path
         d="M 517.53712,81.229138 C 575.50151,79.801629 585.88851,35.847115 585.88851,35.847115 C 580.36631,27.702236 579.38734,23.457274 579.38734,23.457274 C 579.38734,23.457274 578.49514,21.043656 578.47636,21.062439 C 574.58828,25.248798 560.00552,30.695873 560.00552,30.695873 C 560.00552,30.695873 551.60725,23.382142 549.49886,20.365213 C 543.85212,12.274429 542.97176,6.3436912 542.97176,6.3436912 C 533.13885,6.5901244 524.13935,-1.9749314 524.13935,-1.9749314 C 523.58769,-10.993033 527.29733,-18.527465 527.29733,-18.527465 C 520.29822,-21.732223 513.08084,-28.907336 513.08084,-28.907336 C 517.77435,-38.848248 520.84762,-42.071977 520.84762,-42.071977 C 509.67417,-50.72381 509.27033,-56.025317 509.27033,-56.025317 C 512.03839,-63.526878 522.23062,-70.908604 522.23062,-70.908604 C 517.85173,-76.764209 513.72191,-88.217154 513.72191,-88.217154 C 521.77269,-96.298547 529.54191,-98.714419 529.54191,-98.714419 C 528.30918,-103.28583 528.57928,-107.65288 528.90798,-112.46603 C 528.90798,-112.46603 462.4114,-147.10886 455.04846,-169.56396 C 455.04846,-169.56396 451.96091,-149.66579 453.20528,-136.80168 C 454.31123,-125.38874 472.02587,-106.71373 514.85584,-78.069629 C 488.56431,-82.096144 452.58319,-96.199936 444.73884,-110.29415 C 444.73884,-110.29415 444.60736,-89.877009 449.15059,-77.776051 C 452.83901,-67.957228 471.44829,-60.939518 513.37668,-40.360281 C 492.68718,-28.973077 455.99231,-41.59996 445.47851,-52.193581 C 445.47851,-52.193581 451.29655,-34.37789 458.17583,-23.434528 C 462.5194,-16.527074 479.90065,-4.9379523 520.30066,-10.931989 C 505.29998,7.7264969 476.53623,21.790281 457.02537,12.955313 C 457.02537,12.955313 459.03046,30.679344 470.87785,35.856507 C 479.64012,39.683546 498.11792,42.113505 527.56969,19.289886 C 509.8079,63.281966 466.45914,49.845159 466.45914,49.845159 C 466.45914,49.845159 476.70058,67.367272 488.11352,73.438882 C 498.23531,78.822658 519.10324,74.509514 552.97128,37.697242 C 552.97128,37.697242 550.85349,70.276385 517.53712,81.229138 z"
         id="path433"
         style="fill:none;stroke:#740131;stroke-width:2.32439828;stroke-linecap:butt;stroke-linejoin:miter;stroke-miterlimit:4;stroke-dasharray:none;stroke-opacity:1" />
      <path
         d="M 592.24187,47.844767 C 592.24187,47.844767 603.64316,63.791549 607.20029,74.371083 C 607.20029,74.371083 584.63005,93.837238 588.68023,115.18883 C 588.68023,115.18883 581.11763,99.709373 586.27131,87.927726 C 586.76192,86.81239 589.17554,80.322858 589.17554,80.322858 C 589.17329,80.322858 569.6506,89.627589 556.76545,82.633169 C 556.76545,82.633169 570.6414,84.267291 586.01305,59.969205 C 594.17896,47.058135 592.24187,47.844767 592.24187,47.844767"
         id="path435"
         style="fill:#740131;fill-opacity:1;fill-rule:nonzero;stroke:none" />
      <path
         d="M 592.24187,47.844767 C 592.24187,47.844767 603.64316,63.791549 607.20029,74.371083 C 607.20029,74.371083 584.63005,93.837238 588.68023,115.18883 C 588.68023,115.18883 581.11763,99.709373 586.27131,87.927726 C 586.76192,86.81239 589.17554,80.322858 589.17554,80.322858 C 589.17329,80.322858 569.6506,89.627589 556.76545,82.633169 C 556.76545,82.633169 570.6414,84.267291 586.01305,59.969205 C 594.17896,47.058135 592.24187,47.844767 592.24187,47.844767 z"
         id="path437"
         style="fill:none;stroke:#740131;stroke-width:2.32439828;stroke-linecap:butt;stroke-linejoin:miter;stroke-miterlimit:4;stroke-dasharray:none;stroke-opacity:1" />
      <path
         d="M 517.26251,113.53367 C 514.63758,113.6815 504.42432,109.94368 501.79939,117.67289 C 498.76593,126.6183 509.1952,130.63561 515.19168,125.40454 C 521.68121,119.74616 531.61968,119.88459 533.96531,123.88537 C 535.03124,125.70507 536.3577,129.64236 527.6142,136.31278 C 524.90006,138.38116 510.22113,147.49337 520.43684,157.15723 C 523.93048,160.4606 533.47225,159.14823 535.89751,145.83802 C 537.69373,135.98877 540.77415,130.92431 544.42275,129.26915 C 546.25409,128.44269 552.21056,126.69118 555.36386,129.33958 C 556.22543,130.06498 558.27278,131.61702 558.27278,131.61702 C 563.57204,135.11761 570.1953,130.97596 568.79597,125.1814 C 567.21125,118.60039 562.01774,120.17817 558.28462,122.00012 C 555.47656,123.36884 551.91248,122.23021 551.91248,122.23021 C 549.42842,120.98809 548.59953,118.13307 552.74119,116.15616 C 570.41375,107.71319 573.86983,97.983589 573.86983,97.983589 C 565.39155,99.023793 558.32444,96.427041 558.32444,96.427041 C 558.32444,96.427041 542.45053,117.69637 530.33079,112.05921 C 526.37227,110.21847 524.8531,103.82755 524.80858,100.83166 C 524.71692,94.482999 517.68513,91.191275 513.81113,95.724932 C 510.15314,100.00521 514.37218,104.4966 518.1594,105.97576 C 520.36866,106.83753 523.82003,109.76993 522.43948,112.0145 C 521.05893,114.25682 519.09141,113.42793 517.26251,113.53367"
         id="path439"
         style="fill:#740131;fill-opacity:1;fill-rule:nonzero;stroke:none" />
      <path
         d="M 517.26251,113.53367 C 514.63758,113.6815 504.42432,109.94368 501.79939,117.67289 C 498.76593,126.6183 509.1952,130.63561 515.19168,125.40454 C 521.68121,119.74616 531.61968,119.88459 533.96531,123.88537 C 535.03124,125.70507 536.3577,129.64236 527.6142,136.31278 C 524.90006,138.38116 510.22113,147.49337 520.43684,157.15723 C 523.93048,160.4606 533.47225,159.14823 535.89751,145.83802 C 537.69373,135.98877 540.77415,130.92431 544.42275,129.26915 C 546.25409,128.44269 552.21056,126.69118 555.36386,129.33958 C 556.22543,130.06498 558.27278,131.61702 558.27278,131.61702 C 563.57204,135.11761 570.1953,130.97596 568.79597,125.1814 C 567.21125,118.60039 562.01774,120.17817 558.28462,122.00012 C 555.47656,123.36884 551.91248,122.23021 551.91248,122.23021 C 549.42842,120.98809 548.59953,118.13307 552.74119,116.15616 C 570.41375,107.71319 573.86983,97.983589 573.86983,97.983589 C 565.39155,99.023793 558.32444,96.427041 558.32444,96.427041 C 558.32444,96.427041 542.45053,117.69637 530.33079,112.05921 C 526.37227,110.21847 524.8531,103.82755 524.80858,100.83166 C 524.71692,94.482999 517.68513,91.191275 513.81113,95.724932 C 510.15314,100.00521 514.37218,104.4966 518.1594,105.97576 C 520.36866,106.83753 523.82003,109.76993 522.43948,112.0145 C 521.05893,114.25682 519.09141,113.42793 517.26251,113.53367 z"
         id="path441"
         style="fill:none;stroke:#740131;stroke-width:2.32439828;stroke-linecap:butt;stroke-linejoin:miter;stroke-miterlimit:4;stroke-dasharray:none;stroke-opacity:1" />
      <path
         d="M 511.12741,90.20742 C 511.12741,90.20742 507.90612,91.681887 507.44594,94.626125 C 507.44594,94.626125 501.18894,90.024286 496.86415,97.295755 C 496.86415,97.295755 498.05913,85.608023 511.12741,90.20742"
         id="path443"
         style="fill:#740131;fill-opacity:1;fill-rule:nonzero;stroke:none" />
      <path
         d="M 511.12741,90.20742 C 511.12741,90.20742 507.90612,91.681887 507.44594,94.626125 C 507.44594,94.626125 501.18894,90.024286 496.86415,97.295755 C 496.86415,97.295755 498.05913,85.608023 511.12741,90.20742 z"
         id="path445"
         style="fill:none;stroke:#740131;stroke-width:2.32439828;stroke-linecap:butt;stroke-linejoin:miter;stroke-miterlimit:4;stroke-dasharray:none;stroke-opacity:1" />
      <path
         d="M 495.84273,119.86111 C 495.84273,119.86111 494.37071,123.0824 497.22572,127.86981 C 497.22572,127.86981 489.30868,130.81405 494.55609,140.93565 C 494.55609,140.93565 483.0515,129.89124 495.84273,119.86111"
         id="path447"
         style="fill:#740131;fill-opacity:1;fill-rule:nonzero;stroke:none" />
      <path
         d="M 495.84273,119.86111 C 495.84273,119.86111 494.37071,123.0824 497.22572,127.86981 C 497.22572,127.86981 489.30868,130.81405 494.55609,140.93565 C 494.55609,140.93565 483.0515,129.89124 495.84273,119.86111 z"
         id="path449"
         style="fill:none;stroke:#740131;stroke-width:2.32439828;stroke-linecap:butt;stroke-linejoin:miter;stroke-miterlimit:4;stroke-dasharray:none;stroke-opacity:1" />
      <path
         d="M 511.94447,155.15684 C 511.94447,155.15684 511.70029,158.6903 516.05795,162.1629 C 516.05795,162.1629 509.68826,167.71084 518.16635,175.3345 C 518.16635,175.3345 503.50864,169.05383 511.94447,155.15684"
         id="path451"
         style="fill:#740131;fill-opacity:1;fill-rule:nonzero;stroke:none" />
      <path
         d="M 511.94447,155.15684 C 511.94447,155.15684 511.70029,158.6903 516.05795,162.1629 C 516.05795,162.1629 509.68826,167.71084 518.16635,175.3345 C 518.16635,175.3345 503.50864,169.05383 511.94447,155.15684 z"
         id="path453"
         style="fill:none;stroke:#740131;stroke-width:2.32439828;stroke-linecap:butt;stroke-linejoin:miter;stroke-miterlimit:4;stroke-dasharray:none;stroke-opacity:1" />
      <path
         d="M 574.16322,131.32119 C 576.27631,132.1946 578.09826,134.28177 577.26241,139.99425 C 577.26241,139.99425 585.07145,131.9245 574.36513,125.7355 C 574.00356,125.53358 573.6232,125.32941 573.21937,125.12974 C 573.21937,125.12974 574.41209,128.46373 572.62301,130.84917 C 572.62301,130.84917 573.28511,130.95962 574.16322,131.32119"
         id="path455"
         style="fill:#740131;fill-opacity:1;fill-rule:nonzero;stroke:none" />
      <path
         d="M 574.16322,131.32119 C 576.27631,132.1946 578.09826,134.28177 577.26241,139.99425 C 577.26241,139.99425 585.07145,131.9245 574.36513,125.7355 C 574.00356,125.53358 573.6232,125.32941 573.21937,125.12974 C 573.21937,125.12974 574.41209,128.46373 572.62301,130.84917 C 572.62301,130.84917 573.28511,130.95962 574.16322,131.32119 z"
         id="path457"
         style="fill:none;stroke:#740131;stroke-width:2.32439828;stroke-linecap:butt;stroke-linejoin:miter;stroke-miterlimit:4;stroke-dasharray:none;stroke-opacity:1" />
      <path
         d="M 699.85222,130.79996 C 697.74138,131.67093 695.91717,133.76054 696.75302,139.47302 C 696.75302,139.47302 688.94623,131.40327 699.6503,125.21427 C 700.01187,125.0101 700.39448,124.80818 700.79606,124.60626 C 700.79606,124.60626 699.6056,127.9425 701.39242,130.32794 C 701.39242,130.32794 700.73258,130.43839 699.85222,130.79996"
         id="path459"
         style="fill:#740131;fill-opacity:1;fill-rule:nonzero;stroke:none" />
      <path
         d="M 699.85222,130.79996 C 697.74138,131.67093 695.91717,133.76054 696.75302,139.47302 C 696.75302,139.47302 688.94623,131.40327 699.6503,125.21427 C 700.01187,125.0101 700.39448,124.80818 700.79606,124.60626 C 700.79606,124.60626 699.6056,127.9425 701.39242,130.32794 C 701.39242,130.32794 700.73258,130.43839 699.85222,130.79996 z"
         id="path461"
         style="fill:none;stroke:#740131;stroke-width:2.32439828;stroke-linecap:butt;stroke-linejoin:miter;stroke-miterlimit:4;stroke-dasharray:none;stroke-opacity:1" />
      <path
         d="M 637.54651,-79.020425 C 643.10158,-80.678027 645.69364,-84.685947 645.69364,-84.685947 C 649.45738,-79.792971 660.75537,-77.074129 666.23531,-76.689077 C 679.47264,-41.940496 708.12144,-20.856559 681.5692,26.284118 C 653.88773,75.437019 633.84869,82.140115 672.5017,115.8252 C 672.5017,115.8252 647.78795,122.70448 642.08261,101.31757 C 642.08261,101.31757 643.28246,124.87148 637.53017,131.08396 C 631.77787,124.87148 632.91649,101.64158 632.91649,101.64158 C 627.21359,123.02849 602.4974,116.15146 602.4974,116.15146 C 641.15285,82.466563 621.11381,75.761026 593.4299,26.608125 C 566.8801,-20.532552 595.78021,-41.74797 609.01755,-76.496551 C 615.07507,-77.074129 625.26955,-79.670881 629.78912,-84.575503 C 629.78912,-84.575503 631.95856,-80.572466 637.54651,-79.020425"
         id="path463"
         style="fill:#740131;fill-opacity:1;fill-rule:nonzero;stroke:none" />
      <path
         d="M 637.54651,-79.020425 C 643.10158,-80.678027 645.69364,-84.685947 645.69364,-84.685947 C 649.45738,-79.792971 660.75537,-77.074129 666.23531,-76.689077 C 679.47264,-41.940496 708.12144,-20.856559 681.5692,26.284118 C 653.88773,75.437019 633.84869,82.140115 672.5017,115.8252 C 672.5017,115.8252 647.78795,122.70448 642.08261,101.31757 C 642.08261,101.31757 643.28246,124.87148 637.53017,131.08396 C 631.77787,124.87148 632.91649,101.64158 632.91649,101.64158 C 627.21359,123.02849 602.4974,116.15146 602.4974,116.15146 C 641.15285,82.466563 621.11381,75.761026 593.4299,26.608125 C 566.8801,-20.532552 595.78021,-41.74797 609.01755,-76.496551 C 615.07507,-77.074129 625.26955,-79.670881 629.78912,-84.575503 C 629.78912,-84.575503 631.95856,-80.572466 637.54651,-79.020425 z"
         id="path465"
         style="fill:none;stroke:#740131;stroke-width:2.32439828;stroke-linecap:butt;stroke-linejoin:miter;stroke-miterlimit:4;stroke-dasharray:none;stroke-opacity:1" />
      <path
         d="M 650.78158,129.6001 C 659.86787,135.5145 675.20646,130.56273 675.20646,130.56273 C 675.20646,130.56273 674.81915,134.7983 688.58936,140.59061 C 709.23903,149.27776 730.93341,171.15058 702.5874,202.99474 C 702.5874,202.99474 714.35271,166.74352 696.12848,158.27482 C 696.12848,158.27482 680.32483,173.71202 657.50121,143.06997 C 652.87119,136.85035 650.78158,129.6001 650.78158,129.6001"
         id="path467"
         style="fill:#740131;fill-opacity:1;fill-rule:nonzero;stroke:none" />
      <path
         d="M 650.78158,129.6001 C 659.86787,135.5145 675.20646,130.56273 675.20646,130.56273 C 675.20646,130.56273 674.81915,134.7983 688.58936,140.59061 C 709.23903,149.27776 730.93341,171.15058 702.5874,202.99474 C 702.5874,202.99474 714.35271,166.74352 696.12848,158.27482 C 696.12848,158.27482 680.32483,173.71202 657.50121,143.06997 C 652.87119,136.85035 650.78158,129.6001 650.78158,129.6001 z"
         id="path469"
         style="fill:none;stroke:#740131;stroke-width:2.32439828;stroke-linecap:butt;stroke-linejoin:miter;stroke-miterlimit:4;stroke-dasharray:none;stroke-opacity:1" />
      <path
         d="M 702.05922,1.762889 C 702.76358,11.210747 704.1323,11.595798 712.78188,15.829115 C 712.78188,15.829115 716.11831,12.642952 717.81817,9.3771485 C 723.15255,-0.87368307 714.24001,-15.987062 714.24001,-15.987062 C 723.9343,-4.0057512 738.01217,-8.0347083 738.01217,-8.0347083 C 736.97215,-18.264503 723.29342,-27.545567 723.29342,-27.545567 C 735.89908,-25.214219 745.83304,-32.156798 745.83304,-32.156798 C 742.31123,-38.770862 729.03858,-47.185653 729.03858,-47.185653 C 741.86738,-48.019056 750.8528,-56.034708 750.8528,-56.034708 C 747.00454,-61.484225 732.6098,-68.64525 732.6098,-68.64525 C 739.49133,-72.756289 746.25566,-84.718817 746.25566,-84.718817 C 736.48605,-89.982758 725.16703,-88.808819 725.16703,-88.808819 C 743.3302,-102.08127 723.7089,-138.28554 723.7089,-138.28554 C 726.48653,-83.634098 684.36318,-97.866929 687.6502,-70.046839 C 690.35496,-47.155037 715.23307,-63.956446 715.23307,-63.956446 C 719.56255,-32.088803 701.32424,-29.076383 701.32424,-29.076383 C 701.32424,-29.076383 702.20704,-21.389433 702.49348,-13.312736 C 702.84567,-3.4610437 701.71868,-2.7826011 702.05922,1.762889"
         id="path471"
         style="fill:#740131;fill-opacity:1;fill-rule:nonzero;stroke:none" />
      <path
         d="M 702.05922,1.762889 C 702.76358,11.210747 704.1323,11.595798 712.78188,15.829115 C 712.78188,15.829115 716.11831,12.642952 717.81817,9.3771485 C 723.15255,-0.87368307 714.24001,-15.987062 714.24001,-15.987062 C 723.9343,-4.0057512 738.01217,-8.0347083 738.01217,-8.0347083 C 736.97215,-18.264503 723.29342,-27.545567 723.29342,-27.545567 C 735.89908,-25.214219 745.83304,-32.156798 745.83304,-32.156798 C 742.31123,-38.770862 729.03858,-47.185653 729.03858,-47.185653 C 741.86738,-48.019056 750.8528,-56.034708 750.8528,-56.034708 C 747.00454,-61.484225 732.6098,-68.64525 732.6098,-68.64525 C 739.49133,-72.756289 746.25566,-84.718817 746.25566,-84.718817 C 736.48605,-89.982758 725.16703,-88.808819 725.16703,-88.808819 C 743.3302,-102.08127 723.7089,-138.28554 723.7089,-138.28554 C 726.48653,-83.634098 684.36318,-97.866929 687.6502,-70.046839 C 690.35496,-47.155037 715.23307,-63.956446 715.23307,-63.956446 C 719.56255,-32.088803 701.32424,-29.076383 701.32424,-29.076383 C 701.32424,-29.076383 702.20704,-21.389433 702.49348,-13.312736 C 702.84567,-3.4610437 701.71868,-2.7826011 702.05922,1.762889 z"
         id="path473"
         style="fill:none;stroke:#740131;stroke-width:2.32439828;stroke-linecap:butt;stroke-linejoin:miter;stroke-miterlimit:4;stroke-dasharray:none;stroke-opacity:1" />
      <path
         d="M 757.52303,81.229138 C 699.55864,79.801629 689.17163,35.847115 689.17163,35.847115 C 694.69384,27.702236 695.67055,23.457274 695.67055,23.457274 C 695.67055,23.457274 696.56519,21.043656 696.58397,21.062439 C 700.47206,25.248798 715.05463,30.695873 715.05463,30.695873 C 715.05463,30.695873 723.45308,23.382142 725.56147,20.365213 C 731.21046,12.274429 732.08857,6.3436912 732.08857,6.3436912 C 741.92148,6.5901244 750.9208,-1.9749314 750.9208,-1.9749314 C 751.47264,-10.993033 747.763,-18.527465 747.763,-18.527465 C 754.76437,-21.732223 761.9793,-28.907336 761.9793,-28.907336 C 757.28354,-38.848248 754.21252,-42.071977 754.21252,-42.071977 C 765.38372,-50.72381 765.78756,-56.025317 765.78756,-56.025317 C 763.02176,-63.526878 752.82972,-70.908604 752.82972,-70.908604 C 757.20841,-76.764209 761.33842,-88.217154 761.33842,-88.217154 C 753.2899,-96.298547 745.51843,-98.714419 745.51843,-98.714419 C 746.75341,-103.28583 746.48106,-107.65288 746.15235,-112.46603 C 746.15235,-112.46603 812.65118,-147.10886 820.01413,-169.56396 C 820.01413,-169.56396 823.09924,-149.66579 821.85486,-136.80168 C 820.74911,-125.38874 803.03428,-106.71373 760.20675,-78.069629 C 786.49583,-82.096144 822.4794,-96.199936 830.32131,-110.29415 C 830.32131,-110.29415 830.45279,-89.877009 825.90974,-77.776051 C 822.22113,-67.957228 803.61186,-60.939518 761.68347,-40.360281 C 782.37296,-28.973077 819.06803,-41.59996 829.58182,-52.193581 C 829.58182,-52.193581 823.76378,-34.37789 816.8845,-23.434528 C 812.54318,-16.527074 795.1595,-4.9379523 754.75967,-10.931989 C 769.76016,7.7264969 798.5241,21.790281 818.03496,12.955313 C 818.03496,12.955313 816.02987,30.679344 804.18474,35.856507 C 795.42021,39.683546 776.94241,42.113505 747.49064,19.289886 C 765.25224,63.281966 808.60119,49.845159 808.60119,49.845159 C 808.60119,49.845159 798.35975,67.367272 786.94662,73.438882 C 776.82502,78.822658 755.95709,74.509514 722.08887,37.697242 C 722.08887,37.697242 724.2044,70.276385 757.52303,81.229138"
         id="path475"
         style="fill:#740131;fill-opacity:1;fill-rule:nonzero;stroke:none" />
      <path
         d="M 757.52303,81.229138 C 699.55864,79.801629 689.17163,35.847115 689.17163,35.847115 C 694.69384,27.702236 695.67055,23.457274 695.67055,23.457274 C 695.67055,23.457274 696.56519,21.043656 696.58397,21.062439 C 700.47206,25.248798 715.05463,30.695873 715.05463,30.695873 C 715.05463,30.695873 723.45308,23.382142 725.56147,20.365213 C 731.21046,12.274429 732.08857,6.3436912 732.08857,6.3436912 C 741.92148,6.5901244 750.9208,-1.9749314 750.9208,-1.9749314 C 751.47264,-10.993033 747.763,-18.527465 747.763,-18.527465 C 754.76437,-21.732223 761.9793,-28.907336 761.9793,-28.907336 C 757.28354,-38.848248 754.21252,-42.071977 754.21252,-42.071977 C 765.38372,-50.72381 765.78756,-56.025317 765.78756,-56.025317 C 763.02176,-63.526878 752.82972,-70.908604 752.82972,-70.908604 C 757.20841,-76.764209 761.33842,-88.217154 761.33842,-88.217154 C 753.2899,-96.298547 745.51843,-98.714419 745.51843,-98.714419 C 746.75341,-103.28583 746.48106,-107.65288 746.15235,-112.46603 C 746.15235,-112.46603 812.65118,-147.10886 820.01413,-169.56396 C 820.01413,-169.56396 823.09924,-149.66579 821.85486,-136.80168 C 820.74911,-125.38874 803.03428,-106.71373 760.20675,-78.069629 C 786.49583,-82.096144 822.4794,-96.199936 830.32131,-110.29415 C 830.32131,-110.29415 830.45279,-89.877009 825.90974,-77.776051 C 822.22113,-67.957228 803.61186,-60.939518 761.68347,-40.360281 C 782.37296,-28.973077 819.06803,-41.59996 829.58182,-52.193581 C 829.58182,-52.193581 823.76378,-34.37789 816.8845,-23.434528 C 812.54318,-16.527074 795.1595,-4.9379523 754.75967,-10.931989 C 769.76016,7.7264969 798.5241,21.790281 818.03496,12.955313 C 818.03496,12.955313 816.02987,30.679344 804.18474,35.856507 C 795.42021,39.683546 776.94241,42.113505 747.49064,19.289886 C 765.25224,63.281966 808.60119,49.845159 808.60119,49.845159 C 808.60119,49.845159 798.35975,67.367272 786.94662,73.438882 C 776.82502,78.822658 755.95709,74.509514 722.08887,37.697242 C 722.08887,37.697242 724.2044,70.276385 757.52303,81.229138 z"
         id="path477"
         style="fill:none;stroke:#740131;stroke-width:2.32439828;stroke-linecap:butt;stroke-linejoin:miter;stroke-miterlimit:4;stroke-dasharray:none;stroke-opacity:1" />
      <path
         d="M 682.81827,47.844767 C 682.81827,47.844767 671.41698,63.791549 667.86004,74.371083 C 667.86004,74.371083 690.43009,93.837238 686.3801,115.18883 C 686.3801,115.18883 693.94252,99.709373 688.78658,87.927726 C 688.29822,86.81239 685.8846,80.322858 685.8846,80.322858 C 685.8846,80.322858 705.40955,89.627589 718.2947,82.633169 C 718.2947,82.633169 704.41874,84.267291 689.04954,59.969205 C 680.88137,47.058135 682.81827,47.844767 682.81827,47.844767"
         id="path479"
         style="fill:#740131;fill-opacity:1;fill-rule:nonzero;stroke:none" />
      <path
         d="M 682.81827,47.844767 C 682.81827,47.844767 671.41698,63.791549 667.86004,74.371083 C 667.86004,74.371083 690.43009,93.837238 686.3801,115.18883 C 686.3801,115.18883 693.94252,99.709373 688.78658,87.927726 C 688.29822,86.81239 685.8846,80.322858 685.8846,80.322858 C 685.8846,80.322858 705.40955,89.627589 718.2947,82.633169 C 718.2947,82.633169 704.41874,84.267291 689.04954,59.969205 C 680.88137,47.058135 682.81827,47.844767 682.81827,47.844767 z"
         id="path481"
         style="fill:none;stroke:#740131;stroke-width:2.32439828;stroke-linecap:butt;stroke-linejoin:miter;stroke-miterlimit:4;stroke-dasharray:none;stroke-opacity:1" />
      <path
         d="M 757.79782,113.53367 C 760.42275,113.6815 770.63602,109.94368 773.26094,117.67289 C 776.2944,126.6183 765.86513,130.63561 759.86865,125.40454 C 753.38137,119.74616 743.44046,119.88459 741.09258,123.88537 C 740.02909,125.70507 738.70245,129.64236 747.44369,136.31278 C 750.15783,138.38116 764.83901,147.49337 754.62349,157.15723 C 751.12985,160.4606 741.58808,159.14823 739.16038,145.83802 C 737.3666,135.98877 734.28618,130.92431 730.63514,129.26915 C 728.80849,128.44269 722.84958,126.69118 719.69647,129.33958 C 718.83471,130.06498 716.78736,131.61702 716.78736,131.61702 C 711.48585,135.11761 704.86728,130.97596 706.26417,125.1814 C 707.84909,118.60039 713.04259,120.17817 716.77571,122.00012 C 719.58378,123.36884 723.14785,122.23021 723.14785,122.23021 C 725.63191,120.98809 726.46061,118.13307 722.31896,116.15616 C 704.64658,107.71319 701.18806,97.983589 701.18806,97.983589 C 709.6686,99.023793 716.73571,96.427041 716.73571,96.427041 C 716.73571,96.427041 732.6098,117.69637 744.72954,112.05921 C 748.68806,110.21847 750.20704,103.82755 750.25175,100.83166 C 750.34322,94.482999 757.37521,91.191275 761.2492,95.724932 C 764.90945,100.00521 760.68571,104.4966 756.90093,105.97576 C 754.69149,106.83753 751.24011,109.76993 752.62066,112.0145 C 754.00121,114.25682 755.96873,113.42793 757.79782,113.53367"
         id="path483"
         style="fill:#740131;fill-opacity:1;fill-rule:nonzero;stroke:none" />
      <path
         d="M 757.79782,113.53367 C 760.42275,113.6815 770.63602,109.94368 773.26094,117.67289 C 776.2944,126.6183 765.86513,130.63561 759.86865,125.40454 C 753.38137,119.74616 743.44046,119.88459 741.09258,123.88537 C 740.02909,125.70507 738.70245,129.64236 747.44369,136.31278 C 750.15783,138.38116 764.83901,147.49337 754.62349,157.15723 C 751.12985,160.4606 741.58808,159.14823 739.16038,145.83802 C 737.3666,135.98877 734.28618,130.92431 730.63514,129.26915 C 728.80849,128.44269 722.84958,126.69118 719.69647,129.33958 C 718.83471,130.06498 716.78736,131.61702 716.78736,131.61702 C 711.48585,135.11761 704.86728,130.97596 706.26417,125.1814 C 707.84909,118.60039 713.04259,120.17817 716.77571,122.00012 C 719.58378,123.36884 723.14785,122.23021 723.14785,122.23021 C 725.63191,120.98809 726.46061,118.13307 722.31896,116.15616 C 704.64658,107.71319 701.18806,97.983589 701.18806,97.983589 C 709.6686,99.023793 716.73571,96.427041 716.73571,96.427041 C 716.73571,96.427041 732.6098,117.69637 744.72954,112.05921 C 748.68806,110.21847 750.20704,103.82755 750.25175,100.83166 C 750.34322,94.482999 757.37521,91.191275 761.2492,95.724932 C 764.90945,100.00521 760.68571,104.4966 756.90093,105.97576 C 754.69149,106.83753 751.24011,109.76993 752.62066,112.0145 C 754.00121,114.25682 755.96873,113.42793 757.79782,113.53367 z"
         id="path485"
         style="fill:none;stroke:#740131;stroke-width:2.32439828;stroke-linecap:butt;stroke-linejoin:miter;stroke-miterlimit:4;stroke-dasharray:none;stroke-opacity:1" />
      <path
         d="M 763.93273,90.20742 C 763.93273,90.20742 767.15402,91.681887 767.6142,94.626125 C 767.6142,94.626125 773.87139,90.024286 778.19618,97.295755 C 778.19618,97.295755 777.00102,85.608023 763.93273,90.20742"
         id="path487"
         style="fill:#740131;fill-opacity:1;fill-rule:nonzero;stroke:none" />
      <path
         d="M 763.93273,90.20742 C 763.93273,90.20742 767.15402,91.681887 767.6142,94.626125 C 767.6142,94.626125 773.87139,90.024286 778.19618,97.295755 C 778.19618,97.295755 777.00102,85.608023 763.93273,90.20742 z"
         id="path489"
         style="fill:none;stroke:#740131;stroke-width:2.32439828;stroke-linecap:butt;stroke-linejoin:miter;stroke-miterlimit:4;stroke-dasharray:none;stroke-opacity:1" />
      <path
         d="M 779.21516,119.86111 C 779.21516,119.86111 780.68963,123.0824 777.83686,127.86981 C 777.83686,127.86981 785.75165,130.81405 780.50405,140.93565 C 780.50405,140.93565 792.00865,129.89124 779.21516,119.86111"
         id="path491"
         style="fill:#740131;fill-opacity:1;fill-rule:nonzero;stroke:none" />
      <path
         d="M 779.21516,119.86111 C 779.21516,119.86111 780.68963,123.0824 777.83686,127.86981 C 777.83686,127.86981 785.75165,130.81405 780.50405,140.93565 C 780.50405,140.93565 792.00865,129.89124 779.21516,119.86111 z"
         id="path493"
         style="fill:none;stroke:#740131;stroke-width:2.32439828;stroke-linecap:butt;stroke-linejoin:miter;stroke-miterlimit:4;stroke-dasharray:none;stroke-opacity:1" />
      <path
         d="M 763.11567,155.15684 C 763.11567,155.15684 763.3576,158.6903 759.00219,162.1629 C 759.00219,162.1629 765.37208,167.71084 756.8938,175.3345 C 756.8938,175.3345 771.55394,169.05383 763.11567,155.15684"
         id="path495"
         style="fill:#740131;fill-opacity:1;fill-rule:nonzero;stroke:none" />
      <path
         d="M 763.11567,155.15684 C 763.11567,155.15684 763.3576,158.6903 759.00219,162.1629 C 759.00219,162.1629 765.37208,167.71084 756.8938,175.3345 C 756.8938,175.3345 771.55394,169.05383 763.11567,155.15684 z"
         id="path497"
         style="fill:none;stroke:#740131;stroke-width:2.32439828;stroke-linecap:butt;stroke-linejoin:miter;stroke-miterlimit:4;stroke-dasharray:none;stroke-opacity:1" />
      <path
         d="M 637.4973,147.7939 C 639.23472,146.92049 641.02381,146.59178 643.20264,144.40356 C 643.20264,144.40356 658.06226,179.50188 691.54299,175.85798 C 691.54299,175.85798 689.60608,183.34771 676.34057,184.17885 C 676.33813,184.17885 699.03046,194.69734 685.9973,205.3028 C 677.44877,212.25947 670.70792,192.75105 670.70792,192.75105 C 670.70792,192.75105 669.69834,210.63943 654.27053,210.78744 C 654.27053,210.78744 677.1999,197.36697 653.25155,165.94055 C 655.56186,187.99181 647.88186,208.51 637.53017,208.51 C 627.17828,208.51 619.49847,187.99181 621.80878,165.94055 C 597.86043,197.36697 620.7898,210.78744 620.7898,210.78744 C 605.36181,210.63943 604.35222,192.75105 604.35222,192.75105 C 604.34997,192.75105 597.60912,212.25947 589.06059,205.3028 C 576.02987,194.69734 598.71976,184.17885 598.71976,184.17885 C 585.45651,183.34771 583.51716,175.85798 583.51716,175.85798 C 616.99789,179.50188 631.85769,144.40356 631.85769,144.40356 C 634.03652,146.59178 635.76212,146.92049 637.4973,147.7939"
         id="path499"
         style="fill:#740131;fill-opacity:1;fill-rule:nonzero;stroke:none" />
      <path
         d="M 637.4973,147.7939 C 639.23472,146.92049 641.02381,146.59178 643.20264,144.40356 C 643.20264,144.40356 658.06226,179.50188 691.54299,175.85798 C 691.54299,175.85798 689.60608,183.34771 676.34057,184.17885 C 676.33813,184.17885 699.03046,194.69734 685.9973,205.3028 C 677.44877,212.25947 670.70792,192.75105 670.70792,192.75105 C 670.70792,192.75105 669.69834,210.63943 654.27053,210.78744 C 654.27053,210.78744 677.1999,197.36697 653.25155,165.94055 C 655.56186,187.99181 647.88186,208.51 637.53017,208.51 C 627.17828,208.51 619.49847,187.99181 621.80878,165.94055 C 597.86043,197.36697 620.7898,210.78744 620.7898,210.78744 C 605.36181,210.63943 604.35222,192.75105 604.35222,192.75105 C 604.34997,192.75105 597.60912,212.25947 589.06059,205.3028 C 576.02987,194.69734 598.71976,184.17885 598.71976,184.17885 C 585.45651,183.34771 583.51716,175.85798 583.51716,175.85798 C 616.99789,179.50188 631.85769,144.40356 631.85769,144.40356 C 634.03652,146.59178 635.76212,146.92049 637.4973,147.7939 z"
         id="path501"
         style="fill:none;stroke:#740131;stroke-width:2.32439828;stroke-linecap:butt;stroke-linejoin:miter;stroke-miterlimit:4;stroke-dasharray:none;stroke-opacity:1" />
      <path
         d="M 634.37218,-144.17176 L 634.10921,-145.16952 L 633.04328,-149.19847 L 632.78745,-150.1658 L 631.86239,-149.79483 L 613.91991,-142.82408 L 623.54621,-143.35226 C 623.3349,-142.86165 622.97333,-142.0258 622.97333,-141.46926 C 622.97333,-139.24817 624.78119,-137.44275 626.99984,-137.44275 C 629.22093,-137.44275 631.0288,-139.24817 631.0288,-141.46926 C 631.0288,-142.30285 630.76358,-143.09643 630.30565,-143.75609 L 633.34625,-144.06601"
         id="path503"
         style="fill:#fbb93d;fill-opacity:1;fill-rule:nonzero;stroke:none" />
      <path
         d="M 634.37218,-144.17176 L 634.10921,-145.16952 L 633.04328,-149.19847 L 632.78745,-150.1658 L 631.86239,-149.79483 L 613.91991,-142.82408 L 623.54621,-143.35226 C 623.3349,-142.86165 622.97333,-142.0258 622.97333,-141.46926 C 622.97333,-139.24817 624.78119,-137.44275 626.99984,-137.44275 C 629.22093,-137.44275 631.0288,-139.24817 631.0288,-141.46926 C 631.0288,-142.30285 630.76358,-143.09643 630.30565,-143.75609 L 633.34625,-144.06601 L 634.37218,-144.17176 z"
         id="path505"
         style="fill:none;stroke:#fbb93d;stroke-width:2.32439828;stroke-linecap:butt;stroke-linejoin:miter;stroke-miterlimit:4;stroke-dasharray:none;stroke-opacity:1" />
      <path
         d="M 683.77865,-18.292677 C 680.63944,-24.566205 677.09659,-26.514943 673.86122,-27.571488 C 673.47842,-28.550459 672.98311,-29.484914 672.36797,-30.365462 C 668.19344,-36.331323 661.41503,-37.129602 656.55022,-35.272525 C 654.82463,-34.615119 653.754,-34.082057 652.94163,-33.582053 L 654.01696,-35.075303 C 654.08026,-35.162081 654.15069,-35.258438 654.23296,-35.363998 C 655.01471,-36.40176 655.74969,-37.484225 656.8038,-40.245329 C 658.66106,-45.11013 657.86278,-51.886103 651.89448,-56.062883 C 651.01863,-56.678027 650.08417,-57.171081 649.10745,-57.553879 C 648.08622,-60.718817 646.16322,-64.301678 639.82169,-67.471312 L 638.07713,-68.346976 L 636.33031,-67.471312 C 630.05453,-64.334548 628.10579,-60.791507 627.0515,-57.556133 C 626.07253,-57.173523 625.13807,-56.678027 624.25752,-56.062883 C 618.28922,-51.886103 617.49094,-45.11013 619.34821,-40.245329 C 620.40231,-37.484225 621.13729,-36.40176 621.91904,-35.363998 C 622.00131,-35.258438 622.07174,-35.162081 622.13504,-35.075303 L 623.31612,-33.436485 C 622.47558,-33.976497 621.36963,-34.549379 619.47499,-35.272525 C 614.61019,-37.129602 607.83422,-36.331323 603.65969,-30.36302 C 603.04455,-29.487356 602.54905,-28.5529 602.16644,-27.576184 C 599.0015,-26.557205 595.41864,-24.631946 592.24901,-18.292677 L 591.3756,-16.545857 L 592.24901,-14.799036 C 595.38577,-8.5255085 598.92862,-6.5743287 602.164,-5.5202258 C 602.5468,-4.5410671 603.04455,-3.606612 603.65969,-2.726252 C 607.83422,3.2397977 614.61019,4.0380759 619.47499,2.1808112 C 622.23609,1.1289622 623.31837,0.39417058 624.35613,-0.39002038 C 624.46414,-0.46984821 624.55805,-0.54272631 624.64502,-0.60602508 C 624.64502,-0.60602508 625.59581,-1.2893512 626.47861,-1.9302278 L 626.47861,14.152731 L 624.57214,12.579653 L 622.13504,15.96285 C 622.07174,16.049815 622.00131,16.14373 621.91904,16.251733 C 621.13729,17.289494 620.40231,18.371772 619.34821,21.132875 C 617.49094,25.997677 618.28922,32.776092 624.25752,36.950617 C 625.13563,37.563319 626.06783,38.058815 627.0468,38.441426 C 628.06578,41.606364 629.99104,45.189224 636.33031,48.358859 L 638.07713,49.232269 L 639.82169,48.358859 C 646.09748,45.222095 648.04621,41.681496 649.10276,38.443867 C 650.08192,38.061069 651.01637,37.565761 651.89673,36.950617 C 657.86278,32.776092 658.66106,25.997677 656.8038,21.132875 C 655.74969,18.371772 655.01471,17.289494 654.23296,16.251733 C 654.15069,16.14373 654.08026,16.049815 654.01696,15.96285 C 654.01696,15.96285 651.60804,12.617219 651.58925,12.63356 L 649.67339,14.176209 L 649.67339,-1.8340587 L 651.3802,-0.60602508 C 651.46942,-0.54272631 651.56333,-0.46984821 651.66908,-0.39002038 C 652.70684,0.39417058 653.78912,1.1289622 656.55022,2.1808112 C 661.41503,4.0380759 668.19344,3.2397977 672.36797,-2.726252 C 672.98067,-3.6043581 673.47616,-4.5388132 673.85877,-5.5155301 C 677.02371,-6.5345087 680.60902,-8.4573262 683.77865,-14.799036 L 684.65206,-16.545857"
         id="path507"
         style="fill:#fbb93d;fill-opacity:1;fill-rule:nonzero;stroke:none" />
      <path
         d="M 683.77865,-18.292677 C 680.63944,-24.566205 677.09659,-26.514943 673.86122,-27.571488 C 673.47842,-28.550459 672.98311,-29.484914 672.36797,-30.365462 C 668.19344,-36.331323 661.41503,-37.129602 656.55022,-35.272525 C 654.82463,-34.615119 653.754,-34.082057 652.94163,-33.582053 L 654.01696,-35.075303 C 654.08026,-35.162081 654.15069,-35.258438 654.23296,-35.363998 C 655.01471,-36.40176 655.74969,-37.484225 656.8038,-40.245329 C 658.66106,-45.11013 657.86278,-51.886103 651.89448,-56.062883 C 651.01863,-56.678027 650.08417,-57.171081 649.10745,-57.553879 C 648.08622,-60.718817 646.16322,-64.301678 639.82169,-67.471312 L 638.07713,-68.346976 L 636.33031,-67.471312 C 630.05453,-64.334548 628.10579,-60.791507 627.0515,-57.556133 C 626.07253,-57.173523 625.13807,-56.678027 624.25752,-56.062883 C 618.28922,-51.886103 617.49094,-45.11013 619.34821,-40.245329 C 620.40231,-37.484225 621.13729,-36.40176 621.91904,-35.363998 C 622.00131,-35.258438 622.07174,-35.162081 622.13504,-35.075303 L 623.31612,-33.436485 C 622.47558,-33.976497 621.36963,-34.549379 619.47499,-35.272525 C 614.61019,-37.129602 607.83422,-36.331323 603.65969,-30.36302 C 603.04455,-29.487356 602.54905,-28.5529 602.16644,-27.576184 C 599.0015,-26.557205 595.41864,-24.631946 592.24901,-18.292677 L 591.3756,-16.545857 L 592.24901,-14.799036 C 595.38577,-8.5255085 598.92862,-6.5743287 602.164,-5.5202258 C 602.5468,-4.5410671 603.04455,-3.606612 603.65969,-2.726252 C 607.83422,3.2397977 614.61019,4.0380759 619.47499,2.1808112 C 622.23609,1.1289622 623.31837,0.39417058 624.35613,-0.39002038 C 624.46414,-0.46984821 624.55805,-0.54272631 624.64502,-0.60602508 C 624.64502,-0.60602508 625.59581,-1.2893512 626.47861,-1.9302278 L 626.47861,14.152731 L 624.57214,12.579653 L 622.13504,15.96285 C 622.07174,16.049815 622.00131,16.14373 621.91904,16.251733 C 621.13729,17.289494 620.40231,18.371772 619.34821,21.132875 C 617.49094,25.997677 618.28922,32.776092 624.25752,36.950617 C 625.13563,37.563319 626.06783,38.058815 627.0468,38.441426 C 628.06578,41.606364 629.99104,45.189224 636.33031,48.358859 L 638.07713,49.232269 L 639.82169,48.358859 C 646.09748,45.222095 648.04621,41.681496 649.10276,38.443867 C 650.08192,38.061069 651.01637,37.565761 651.89673,36.950617 C 657.86278,32.776092 658.66106,25.997677 656.8038,21.132875 C 655.74969,18.371772 655.01471,17.289494 654.23296,16.251733 C 654.15069,16.14373 654.08026,16.049815 654.01696,15.96285 C 654.01696,15.96285 651.60804,12.617219 651.58925,12.63356 L 649.67339,14.176209 L 649.67339,-1.8340587 L 651.3802,-0.60602508 C 651.46942,-0.54272631 651.56333,-0.46984821 651.66908,-0.39002038 C 652.70684,0.39417058 653.78912,1.1289622 656.55022,2.1808112 C 661.41503,4.0380759 668.19344,3.2397977 672.36797,-2.726252 C 672.98067,-3.6043581 673.47616,-4.5388132 673.85877,-5.5155301 C 677.02371,-6.5345087 680.60902,-8.4573262 683.77865,-14.799036 L 684.65206,-16.545857 L 683.77865,-18.292677 z"
         id="path509"
         style="fill:none;stroke:#fbb93d;stroke-width:2.32439828;stroke-linecap:butt;stroke-linejoin:miter;stroke-miterlimit:4;stroke-dasharray:none;stroke-opacity:1" />
      <path
         d="M 674.30262,-16.956641 C 674.26505,-17.01299 670.79019,-21.807356 665.83617,-20.602988 C 666.47949,-22.035194 666.70489,-23.958011 665.35946,-25.881016 C 663.35681,-28.742985 660.37031,-28.480022 659.06959,-27.940011 C 659.06959,-27.940011 658.27601,-27.611308 658.27826,-27.609054 L 658.81132,-26.935119 C 658.81602,-26.928169 659.41463,-26.155624 659.51099,-25.073347 C 659.60491,-24.030889 659.50385,-22.478848 657.59268,-21.025606 C 656.64189,-20.304714 654.08026,-20.194458 653.15989,-20.213241 L 641.78677,-20.213241 C 641.78677,-23.385129 641.78677,-37.301091 641.78677,-37.312736 C 641.76799,-38.221458 641.87843,-40.782898 642.60158,-41.733883 C 644.05013,-43.645055 645.60442,-43.743665 646.64688,-43.64975 C 647.72934,-43.555835 648.5017,-42.957033 648.5064,-42.952337 L 649.18259,-42.407629 L 649.51598,-43.208349 C 650.05374,-44.511327 650.3167,-47.497827 647.45699,-49.498218 C 645.53173,-50.843646 643.60873,-50.620504 642.17652,-49.977185 C 643.38108,-54.931206 638.58896,-58.40381 638.53262,-58.441376 C 638.53262,-58.441376 638.36357,-58.563466 638.35418,-58.563466 L 638.14756,-58.563466 L 637.94095,-58.563466 L 637.7719,-58.441376 C 637.71555,-58.40381 632.92363,-54.931206 634.128,-49.977185 C 632.69354,-50.620504 630.77053,-50.843646 628.84772,-49.498218 C 625.988,-47.497827 626.24852,-44.511327 626.78853,-43.208349 C 626.78853,-43.208349 627.11724,-42.414767 627.11968,-42.419463 L 627.79587,-42.950083 C 627.80282,-42.957033 628.57536,-43.555835 629.65539,-43.652004 C 630.69784,-43.743665 632.25214,-43.645055 633.70313,-41.733883 C 634.40279,-40.811073 634.51775,-38.428072 634.50366,-37.477087 L 634.48957,-37.432572 L 634.48957,-37.331519 L 634.48957,-20.213241 C 631.9163,-20.213241 622.58583,-20.213241 622.57644,-20.213241 C 621.66791,-20.194458 619.10628,-20.304714 618.15548,-21.025606 C 616.24431,-22.478848 616.1457,-24.030889 616.23717,-25.073347 C 616.33353,-26.155624 616.93215,-26.928169 616.93459,-26.930423 L 617.4793,-27.609054 L 616.67858,-27.940011 C 615.37785,-28.480022 612.39135,-28.742985 610.38871,-25.881016 C 609.04328,-23.958011 609.26642,-22.035194 609.90974,-20.602988 C 604.95797,-21.805102 601.48311,-17.01299 601.44555,-16.956641 C 601.44555,-16.956641 601.3259,-16.787594 601.3259,-16.780645 L 601.3259,-16.57159 L 601.3259,-16.364976 L 601.44555,-16.195929 C 601.48311,-16.142022 604.95797,-11.349911 609.90974,-12.554466 C 609.26642,-11.119819 609.04328,-9.1970014 610.38871,-7.2739961 C 612.39135,-4.4120278 615.37785,-4.6749901 616.67858,-5.2150018 C 616.67858,-5.2150018 617.4699,-5.5437046 617.4699,-5.5459586 L 616.93684,-6.2198932 C 616.93215,-6.2292847 616.33353,-6.9993884 616.23717,-8.0816659 C 616.1457,-9.1241233 616.24431,-10.676164 618.15548,-12.129406 C 619.07585,-12.826819 621.4566,-12.944213 622.4074,-12.930126 L 622.4521,-12.913597 L 622.55541,-12.913597 L 634.48957,-12.913597 L 634.48957,18.024286 C 634.48957,18.024286 634.48957,18.122897 634.5014,18.162905 L 634.50366,18.1676 C 634.51775,19.118397 634.40279,21.501586 633.70313,22.424208 C 632.25214,24.33538 630.69784,24.433991 629.65539,24.342517 C 628.57536,24.24616 627.80282,23.645104 627.79812,23.64285 L 627.12193,23.098142 L 626.78853,23.901116 C 626.24852,25.199399 625.988,28.185898 628.84772,30.188731 C 630.77053,31.533971 632.69354,31.311017 634.128,30.665256 C 632.92363,35.619277 637.71555,39.094135 637.7719,39.131701 C 637.7719,39.131701 637.94095,39.253791 637.95034,39.253791 L 638.15696,39.253791 L 638.36357,39.253791 L 638.53262,39.131701 C 638.58896,39.094135 643.38108,35.619277 642.17652,30.665256 C 643.61117,31.311017 645.53399,31.533971 647.45699,30.188731 C 650.3167,28.185898 650.05374,25.199399 649.51598,23.901116 C 649.51598,23.901116 649.18503,23.105092 649.18259,23.107534 L 648.50884,23.640408 C 648.5017,23.645104 647.72934,24.24616 646.64688,24.342517 C 645.60442,24.433991 644.05013,24.33538 642.59914,22.424208 C 641.87843,21.473411 641.76799,18.911784 641.78677,17.989162 C 641.78677,17.989162 641.78677,-8.422202 641.78677,-12.913597 L 653.19276,-12.913597 C 653.19276,-12.913597 653.29607,-12.913597 653.33607,-12.927684 L 653.34077,-12.930126 C 654.29401,-12.944213 656.67231,-12.826819 657.59268,-12.129406 C 659.50385,-10.676164 659.60491,-9.1241233 659.51099,-8.0816659 C 659.41463,-6.9993884 658.81602,-6.2292847 658.81132,-6.2221472 L 658.26887,-5.5459586 L 659.06959,-5.2150018 C 660.37031,-4.6749901 663.35681,-4.4120278 665.35946,-7.2739961 C 666.70489,-9.1970014 666.47949,-11.119819 665.83617,-12.554466 C 670.79019,-11.349911 674.26505,-16.142022 674.30262,-16.195929 C 674.30262,-16.195929 674.42227,-16.364976 674.42227,-16.374368 L 674.42227,-16.580981 L 674.42227,-16.787594"
         id="path511"
         style="fill:#740131;fill-opacity:1;fill-rule:nonzero;stroke:none" />
      <path
         d="M 674.30262,-16.956641 C 674.26505,-17.01299 670.79019,-21.807356 665.83617,-20.602988 C 666.47949,-22.035194 666.70489,-23.958011 665.35946,-25.881016 C 663.35681,-28.742985 660.37031,-28.480022 659.06959,-27.940011 C 659.06959,-27.940011 658.27601,-27.611308 658.27826,-27.609054 L 658.81132,-26.935119 C 658.81602,-26.928169 659.41463,-26.155624 659.51099,-25.073347 C 659.60491,-24.030889 659.50385,-22.478848 657.59268,-21.025606 C 656.64189,-20.304714 654.08026,-20.194458 653.15989,-20.213241 L 641.78677,-20.213241 C 641.78677,-23.385129 641.78677,-37.301091 641.78677,-37.312736 C 641.76799,-38.221458 641.87843,-40.782898 642.60158,-41.733883 C 644.05013,-43.645055 645.60442,-43.743665 646.64688,-43.64975 C 647.72934,-43.555835 648.5017,-42.957033 648.5064,-42.952337 L 649.18259,-42.407629 L 649.51598,-43.208349 C 650.05374,-44.511327 650.3167,-47.497827 647.45699,-49.498218 C 645.53173,-50.843646 643.60873,-50.620504 642.17652,-49.977185 C 643.38108,-54.931206 638.58896,-58.40381 638.53262,-58.441376 C 638.53262,-58.441376 638.36357,-58.563466 638.35418,-58.563466 L 638.14756,-58.563466 L 637.94095,-58.563466 L 637.7719,-58.441376 C 637.71555,-58.40381 632.92363,-54.931206 634.128,-49.977185 C 632.69354,-50.620504 630.77053,-50.843646 628.84772,-49.498218 C 625.988,-47.497827 626.24852,-44.511327 626.78853,-43.208349 C 626.78853,-43.208349 627.11724,-42.414767 627.11968,-42.419463 L 627.79587,-42.950083 C 627.80282,-42.957033 628.57536,-43.555835 629.65539,-43.652004 C 630.69784,-43.743665 632.25214,-43.645055 633.70313,-41.733883 C 634.40279,-40.811073 634.51775,-38.428072 634.50366,-37.477087 L 634.48957,-37.432572 L 634.48957,-37.331519 L 634.48957,-20.213241 C 631.9163,-20.213241 622.58583,-20.213241 622.57644,-20.213241 C 621.66791,-20.194458 619.10628,-20.304714 618.15548,-21.025606 C 616.24431,-22.478848 616.1457,-24.030889 616.23717,-25.073347 C 616.33353,-26.155624 616.93215,-26.928169 616.93459,-26.930423 L 617.4793,-27.609054 L 616.67858,-27.940011 C 615.37785,-28.480022 612.39135,-28.742985 610.38871,-25.881016 C 609.04328,-23.958011 609.26642,-22.035194 609.90974,-20.602988 C 604.95797,-21.805102 601.48311,-17.01299 601.44555,-16.956641 C 601.44555,-16.956641 601.3259,-16.787594 601.3259,-16.780645 L 601.3259,-16.57159 L 601.3259,-16.364976 L 601.44555,-16.195929 C 601.48311,-16.142022 604.95797,-11.349911 609.90974,-12.554466 C 609.26642,-11.119819 609.04328,-9.1970014 610.38871,-7.2739961 C 612.39135,-4.4120278 615.37785,-4.6749901 616.67858,-5.2150018 C 616.67858,-5.2150018 617.4699,-5.5437046 617.4699,-5.5459586 L 616.93684,-6.2198932 C 616.93215,-6.2292847 616.33353,-6.9993884 616.23717,-8.0816659 C 616.1457,-9.1241233 616.24431,-10.676164 618.15548,-12.129406 C 619.07585,-12.826819 621.4566,-12.944213 622.4074,-12.930126 L 622.4521,-12.913597 L 622.55541,-12.913597 L 634.48957,-12.913597 L 634.48957,18.024286 C 634.48957,18.024286 634.48957,18.122897 634.5014,18.162905 L 634.50366,18.1676 C 634.51775,19.118397 634.40279,21.501586 633.70313,22.424208 C 632.25214,24.33538 630.69784,24.433991 629.65539,24.342517 C 628.57536,24.24616 627.80282,23.645104 627.79812,23.64285 L 627.12193,23.098142 L 626.78853,23.901116 C 626.24852,25.199399 625.988,28.185898 628.84772,30.188731 C 630.77053,31.533971 632.69354,31.311017 634.128,30.665256 C 632.92363,35.619277 637.71555,39.094135 637.7719,39.131701 C 637.7719,39.131701 637.94095,39.253791 637.95034,39.253791 L 638.15696,39.253791 L 638.36357,39.253791 L 638.53262,39.131701 C 638.58896,39.094135 643.38108,35.619277 642.17652,30.665256 C 643.61117,31.311017 645.53399,31.533971 647.45699,30.188731 C 650.3167,28.185898 650.05374,25.199399 649.51598,23.901116 C 649.51598,23.901116 649.18503,23.105092 649.18259,23.107534 L 648.50884,23.640408 C 648.5017,23.645104 647.72934,24.24616 646.64688,24.342517 C 645.60442,24.433991 644.05013,24.33538 642.59914,22.424208 C 641.87843,21.473411 641.76799,18.911784 641.78677,17.989162 C 641.78677,17.989162 641.78677,-8.422202 641.78677,-12.913597 L 653.19276,-12.913597 C 653.19276,-12.913597 653.29607,-12.913597 653.33607,-12.927684 L 653.34077,-12.930126 C 654.29401,-12.944213 656.67231,-12.826819 657.59268,-12.129406 C 659.50385,-10.676164 659.60491,-9.1241233 659.51099,-8.0816659 C 659.41463,-6.9993884 658.81602,-6.2292847 658.81132,-6.2221472 L 658.26887,-5.5459586 L 659.06959,-5.2150018 C 660.37031,-4.6749901 663.35681,-4.4120278 665.35946,-7.2739961 C 666.70489,-9.1970014 666.47949,-11.119819 665.83617,-12.554466 C 670.79019,-11.349911 674.26505,-16.142022 674.30262,-16.195929 C 674.30262,-16.195929 674.42227,-16.364976 674.42227,-16.374368 L 674.42227,-16.580981 L 674.42227,-16.787594 L 674.30262,-16.956641 z"
         id="path513"
         style="fill:none;stroke:#740131;stroke-width:2.32439828;stroke-linecap:butt;stroke-linejoin:miter;stroke-miterlimit:4;stroke-dasharray:none;stroke-opacity:1" />
    </g>
  </g>
</svg>
